<!DOCTYPE svg PUBLIC "-//W3C//DTD SVG 1.1//EN" "http://www.w3.org/Graphics/SVG/1.1/DTD/svg11.dtd">
<!-- Uploaded to: SVG Repo, www.svgrepo.com, Transformed by: SVG Repo Mixer Tools -->
<svg width="120px" height="120px" viewBox="0 0 24.00 24.00" fill="none" xmlns="http://www.w3.org/2000/svg" transform="matrix(-1, 0, 0, 1, 0, 0)rotate(0)">
<g id="SVGRepo_bgCarrier" stroke-width="0"/>
<g id="SVGRepo_tracerCarrier" stroke-linecap="round" stroke-linejoin="round" stroke="#CCCCCC" stroke-width="0.048"/>
<g id="SVGRepo_iconCarrier"> <circle cx="12" cy="9" r="7" fill="#FFD013" fill-opacity="0.24"/> <path d="M11 14V9.75C11 9.05964 10.4404 8.5 9.75 8.5V8.5C9.05964 8.5 8.5 9.05964 8.5 9.75V9.75C8.5 10.4404 9.05964 11 9.75 11H14.25C14.9404 11 15.5 10.4404 15.5 9.75V9.75C15.5 9.05964 14.9404 8.5 14.25 8.5V8.5C13.5596 8.5 13 9.05964 13 9.75V14" stroke="#222222" stroke-linecap="round"/> <path fill-rule="evenodd" clip-rule="evenodd" d="M15 16.5637C15 16.4535 14.885 16.3806 14.784 16.4245C13.9307 16.7947 12.9893 17 12 17C11.0107 17 10.0693 16.7947 9.21605 16.4245C9.11496 16.3806 9 16.4535 9 16.5637V18.5C9 19.8807 10.1193 21 11.5 21H12.5C13.8807 21 15 19.8807 15 18.5V16.5637Z" fill="#222222"/> </g>
</svg>